#!OML:ASF F:\VICON\USERDATA\INSTALL\rory3\rory3.ASF
:FULLY-SPECIFIED
:DEGREES
29
root -1.0055330259862965 17.520034665651444 -2.2481160814880408 6.152457480225196 3.8421146280953535 4.618504240551132
lfemur -9.386524164963712 0.4548966598986708 -28.768730511081404
ltibia 42.03310616649329
lfoot -12.927771906068788 -2.580816776348197
ltoes -25.50383358116658
rfemur -47.39116776756569 -5.953656139308689 19.793297748609167
rtibia 106.20007214174176
rfoot 8.969589730624286 -7.675038460677633
rtoes 6.895062731728094
lowerback 15.491926913816148 -0.229960890810759 -3.5621457960149576
upperback -0.3696209598079866 -1.0447712001639093 0.41544518204448777
thorax -8.717279258061327 -0.3490491317979061 2.8554558046435856
lowerneck -20.17412050215043 -4.087043380157763 -1.5693860152811945
upperneck 13.648202845914236 -6.115533703855883 5.139133155119593
head 7.766715300150631 -2.458443670391579 1.1288263531319578
lclavicle 1.185281030192281e-16 1.673049355448432e-15
lhumerus -40.38887524467735 -11.487966909048897 92.4388172275527
lradius 116.56365119424059
lwrist 33.80219061860607
lhand -29.43541258390635 6.340245908433729
lfingers 7.125019999999998
lthumb -3.2974470206801647 36.40665371307089
rclavicle 1.1865856963701221e-16 1.6743179468952637e-15
rhumerus -56.88000091198866 6.531037965587959 -98.64486338528965
rradius 97.85666758986343
rwrist -22.922431926000378
rhand -18.34848805587547 39.98016015508576
rfingers 7.125019999999998
rthumb 7.738075210292872 9.852139582365938
30
root -0.9607797977588354 17.783784446511213 -1.072579670620538 5.81517673749973 3.335670494479797 4.235228598510821
lfemur -5.7791737977856386 0.29587455849446975 -28.523984891707467
ltibia 39.47661933083995
lfoot -5.39287566234447 -6.486586461663595
ltoes -28.97435697809737
rfemur -47.58953520878753 -4.808619468970681 20.461714481751816
rtibia 99.17781485557745
rfoot 8.45699296381894 -7.491038448213355
rtoes 5.701175669720388
lowerback 15.702598334596898 -0.6259568454187036 -3.29083820533033
upperback -0.5752308051612163 -1.4615944206682627 0.8058555900181834
thorax -8.7840023696154 -0.5155357333518102 3.054893873508401
lowerneck -20.10599144970272 -3.8722528972211507 -1.7658689674839174
upperneck 14.01488004965742 -5.663911032177055 4.877774192087079
head 7.83303558407115 -2.2738880470243443 1.096325354545204
lclavicle 1.1915021232235085e-16 1.673471643744121e-15
lhumerus -39.46950490612032 -10.975624028928973 91.57198831335374
lradius 120.79319090817877
lwrist 35.01060441984057
lhand -30.58724278151036 8.275639381302828
lfingers 7.125019999999998
lthumb -4.486933506490017 37.979755304448425
rclavicle 1.2365048209828369e-16 1.677259701614875e-15
rhumerus -58.65880686889591 6.601607075323145 -98.1591985055212
rradius 100.27696588892395
rwrist -23.4985947379885
rhand -17.8923329160167 39.98590027845296
rfingers 7.125019999999998
rthumb 8.161332861970722 9.997667181332982
31
root -0.9308952713272072 17.990942073730523 -0.015298771608872386 5.336953641452628 1.7930810244625697 3.9640308605582097
lfemur -2.3534667230925628 0.932699708238456 -28.409532064630888
ltibia 36.75976196131996
lfoot 4.370373651818278 -10.54021753899426
ltoes -30.308731182224474
rfemur -47.13293139816598 -2.3393907541992007 20.75939706604527
rtibia 91.3031181982289
rfoot 8.31878579826351 -7.52710769309553
rtoes 3.2002472466145786
lowerback 15.580738109742951 -0.6208555629323752 -3.3612508526960965
upperback -0.6847932062413261 -1.4263575650383635 0.9753702013181524
thorax -8.583241111235719 -0.49769298018459085 3.2982119411201394
lowerneck -19.985138872253973 -3.454158485380633 -1.8008174259142238
upperneck 14.585114480644242 -4.9579798580906305 4.377118802164807
head 7.946555978136102 -1.996021463030504 1.0125558203457659
lclavicle 1.1483789787807857e-16 1.6705429510131098e-15
lhumerus -38.81373385629365 -10.535337434724328 90.61122471341581
lradius 124.03161360422294
lwrist 35.66036487116971
lhand -31.50058110577099 9.25661504970715
lfingers 7.125019999999998
lthumb -5.357881108623732 38.17224203752727
rclavicle 1.2378952296736012e-16 1.6774959401228865e-15
rhumerus -60.25330557563585 6.588624220975462 -97.61732240443341
rradius 102.27945545357917
rwrist -23.65699256000588
rhand -17.60181377496633 39.97575724647714
rfingers 7.125019999999998
rthumb 8.286296120930363 9.950821461168958
32
root -0.8824966352756232 18.20489441893812 0.9599082353441064 5.228417131928165 0.5192949771976452 3.0582195296218266
lfemur 0.5669523979049664 0.9827462941279668 -27.591833790652313
ltibia 33.856584236587594
lfoot 14.717816161179105 -13.21849460288919
ltoes -29.71164532689195
rfemur -46.3725537709526 0.34906129791491036 21.59576240511914
rtibia 82.54417339804054
rfoot 8.655416105319135 -7.497199557926854
rtoes 0.9209781188386823
lowerback 15.345985591974022 -0.6670431018552706 -2.7318616207765523
upperback -0.799110502453031 -1.4392512308098375 1.2178523829652441
thorax -8.531306708190867 -0.5096680968109835 3.4858589465843974
lowerneck -19.710608966471703 -3.3076995228097905 -1.8493761637744806
upperneck 15.202474358541345 -4.661341819871413 3.954547555376955
head 8.087163835465134 -1.888931196478206 0.9157501549646285
lclavicle 1.171363982818841e-16 1.6721039907430703e-15
lhumerus -38.61071448829549 -10.193443727629871 89.62709560232274
lradius 126.04518685461119
lwrist 35.783753445117206
lhand -31.80370779085046 7.91099764227543
lfingers 7.125019999999998
lthumb -5.618619798393072 36.24603835455311
rclavicle 1.2127480140048404e-16 1.6756743986597246e-15
rhumerus -61.5883446877466 6.444648753394837 -97.04641441673986
rradius 103.77973161334421
rwrist -23.685112311475752
rhand -17.46530749545065 39.925397817561986
rfingers 7.125019999999998
rthumb 8.574272585481161 10.214302835191365
33
root -0.8254639460743409 18.36185922194011 2.035561604504359 5.3209032666648195 -0.731120225576643 2.7658157586254397
lfemur 2.815187260291985 0.6725993106628818 -27.65058754147423
ltibia 31.393536171366446
lfoot 22.92026995369235 -14.937520481765333
ltoes -24.876137599321513
rfemur -45.23670225225226 3.4581920321275015 21.66268805553249
rtibia 73.02117380462262
rfoot 9.597782524682307 -7.266177709360612
rtoes -1.833162503309547
lowerback 14.851465498156347 -0.7229964104997558 -2.4118592584283447
upperback -0.8384618799619854 -1.4343313269949909 1.5030501040367383
thorax -8.453044072900111 -0.5131575591908943 3.5689056645619575
lowerneck -19.387023499359916 -3.2177613370790135 -2.0038954603022097
upperneck 15.7836336020156 -4.423892663800926 3.6862546954379325
head 8.228134110265596 -1.7979211501536723 0.8784054746205164
lclavicle 1.1794200673829495e-16 1.6726507427170315e-15
lhumerus -38.92895193665361 -10.054486875529648 88.68343244924274
lradius 126.83592246189536
lwrist 35.61977359665875
lhand -31.672940817873886 5.845707788667376
lfingers 7.125019999999998
lthumb -5.443422050942199 33.878104601469616
rclavicle 1.206598236806042e-16 1.6751304603703503e-15
rhumerus -62.664986513061876 6.149859251688938 -96.47593011438838
rradius 105.00447799746452
rwrist -23.611868187135816
rhand -17.26348524483767 39.858211141359824
rfingers 7.125019999999998
rthumb 8.653015180223253 10.328362642188907
34
root -0.7736310217558576 18.512043950331055 3.107321400587103 5.540740360147145 -0.899245766675895 2.634572082543488
lfemur 4.420031664839087 -0.6581477610713216 -27.75028758786725
ltibia 30.480452165208487
lfoot 27.56822325443977 -16.423085013664558
ltoes -18.33946606798554
rfemur -43.3394784342211 5.103383424194825 21.70716994098614
rtibia 62.899948220007886
rfoot 10.929333726246583 -6.9181933533357105
rtoes -4.362882688181562
lowerback 14.374814091903165 -1.0467659580434119 -1.9665602264881707
upperback -1.1761708065913332 -1.8643573814589516 1.5387783705291889
thorax -8.692620909665445 -0.7266903571019461 3.599070887053624
lowerneck -18.637783805451996 -3.06153464410854 -2.097433431235126
upperneck 16.10264534086824 -4.0753640707350565 3.4331770377000685
head 8.286245897456062 -1.6591061073551905 0.8706246024081217
lclavicle 1.1756874107746587e-16 1.6723972607526388e-15
lhumerus -39.428837815828594 -10.130373819241294 87.91658890280762
lradius 126.58878734203299
lwrist 35.50370633511876
lhand -31.182070831634206 3.37313902643304
lfingers 7.125019999999998
lthumb -4.91710942113876 31.833197828528466
rclavicle 1.214197403980834e-16 1.6756496871334337e-15
rhumerus -63.475590429271705 5.826435391839019 -95.93024380102042
rradius 106.08668586077496
rwrist -23.31692522602901
rhand -17.295952393134705 39.923924883556865
rfingers 7.125019999999998
rthumb 8.680765241320081 10.515681612511667
